<svg width="42" height="14" viewBox="0 0 42 14" fill="none" xmlns="http://www.w3.org/2000/svg">
<path d="M21.7297 3.88276C21.7297 4.34403 21.3596 4.7156 20.9002 4.7156C20.4408 4.7156 20.0707 4.34403 20.0707 3.88276C20.0707 3.4215 20.428 3.04993 20.9002 3.04993C21.3724 3.06274 21.7297 3.43432 21.7297 3.88276ZM18.3095 5.56124C18.3095 5.63812 18.3095 5.76625 18.3095 5.76625C18.3095 5.76625 17.9139 5.25374 17.0716 5.25374C15.6806 5.25374 14.5958 6.3172 14.5958 7.79067C14.5958 9.25133 15.6678 10.3276 17.0716 10.3276C17.9267 10.3276 18.3095 9.80228 18.3095 9.80228V10.0201C18.3095 10.1226 18.3861 10.1995 18.4882 10.1995H19.5219V5.38186C19.5219 5.38186 18.5775 5.38186 18.4882 5.38186C18.3861 5.38186 18.3095 5.47155 18.3095 5.56124ZM18.3095 8.64913C18.1181 8.93101 17.7352 9.17446 17.2758 9.17446C16.459 9.17446 15.8337 8.66194 15.8337 7.79067C15.8337 6.9194 16.459 6.40689 17.2758 6.40689C17.7225 6.40689 18.1308 6.66315 18.3095 6.93221V8.64913ZM20.2876 5.38186H21.5128V10.1995H20.2876V5.38186ZM38.5883 5.25374C37.746 5.25374 37.3504 5.76625 37.3504 5.76625V3.06274H36.1252V10.1995C36.1252 10.1995 37.0696 10.1995 37.1589 10.1995C37.261 10.1995 37.3376 10.1098 37.3376 10.0201V9.80228C37.3376 9.80228 37.7332 10.3276 38.5755 10.3276C39.9666 10.3276 41.0513 9.25133 41.0513 7.79067C41.0513 6.33001 39.9666 5.25374 38.5883 5.25374ZM38.3841 9.16164C37.9119 9.16164 37.5418 8.9182 37.3504 8.63632V6.9194C37.5418 6.66314 37.9502 6.39408 38.3841 6.39408C39.2009 6.39408 39.8262 6.90659 39.8262 7.77786C39.8262 8.64913 39.2009 9.16164 38.3841 9.16164ZM35.4871 7.34222V10.2123H34.262V7.48317C34.262 6.68877 34.0067 6.36845 33.3176 6.36845C32.9475 6.36845 32.5646 6.56064 32.3222 6.84252V10.1995H31.097V5.38186H32.0669C32.169 5.38186 32.2456 5.47155 32.2456 5.56124V5.76625C32.6029 5.39468 33.0751 5.25374 33.5473 5.25374C34.0833 5.25374 34.53 5.40749 34.8873 5.715C35.3212 6.07376 35.4871 6.53502 35.4871 7.34222ZM28.1235 5.25374C27.2812 5.25374 26.8856 5.76625 26.8856 5.76625V3.06274H25.6604V10.1995C25.6604 10.1995 26.6048 10.1995 26.6941 10.1995C26.7962 10.1995 26.8728 10.1098 26.8728 10.0201V9.80228C26.8728 9.80228 27.2684 10.3276 28.1107 10.3276C29.5018 10.3276 30.5865 9.25133 30.5865 7.79067C30.5993 6.33001 29.5145 5.25374 28.1235 5.25374ZM27.9193 9.16164C27.4471 9.16164 27.077 8.9182 26.8856 8.63632V6.9194C27.077 6.66314 27.4854 6.39408 27.9193 6.39408C28.736 6.39408 29.3614 6.90659 29.3614 7.77786C29.3614 8.64913 28.736 9.16164 27.9193 9.16164ZM24.6012 5.25374C24.9713 5.25374 25.1627 5.3178 25.1627 5.3178V6.45814C25.1627 6.45814 24.1417 6.11219 23.5036 6.84252V10.2123H22.2785V5.38186C22.2785 5.38186 23.2229 5.38186 23.3122 5.38186C23.4143 5.38186 23.4909 5.47155 23.4909 5.56124V5.76625C23.7206 5.49718 24.2183 5.25374 24.6012 5.25374ZM11.8775 9.76385C11.8137 9.61009 11.7499 9.44353 11.6861 9.30258C11.584 9.07195 11.4819 8.85414 11.3925 8.64913L11.3798 8.63632C10.4992 6.7144 9.55481 4.76685 8.55937 2.84493L8.52109 2.76805C8.41899 2.57586 8.3169 2.37085 8.2148 2.16585C8.08718 1.93522 7.95956 1.69177 7.75537 1.46114C7.34699 0.94863 6.75993 0.666748 6.1346 0.666748C5.4965 0.666748 4.92221 0.94863 4.50107 1.43552C4.30964 1.66615 4.16925 1.90959 4.04164 2.14022C3.93954 2.34523 3.83744 2.55023 3.73535 2.74242L3.69706 2.8193C2.71439 4.74122 1.75724 6.68877 0.876667 8.61069L0.863905 8.63632C0.774571 8.84132 0.672475 9.05914 0.570379 9.28977C0.50657 9.43071 0.44276 9.58447 0.37895 9.75103C0.213044 10.2251 0.161996 10.6736 0.225806 11.1348C0.366188 12.0958 1.00429 12.903 1.88486 13.2617C2.21667 13.4027 2.56125 13.4667 2.91858 13.4667C3.02068 13.4667 3.1483 13.4539 3.25039 13.4411C3.67154 13.3899 4.10545 13.2489 4.52659 13.0055C5.04983 12.7108 5.54755 12.288 6.10907 11.673C6.6706 12.288 7.18108 12.7108 7.69156 13.0055C8.1127 13.2489 8.54661 13.3899 8.96775 13.4411C9.06985 13.4539 9.19747 13.4667 9.29957 13.4667C9.6569 13.4667 10.0142 13.4027 10.3333 13.2617C11.2266 12.903 11.852 12.083 11.9923 11.1348C12.0944 10.6864 12.0434 10.2379 11.8775 9.76385ZM6.12184 10.4301C5.43269 9.55884 4.98602 8.73882 4.83288 8.04693C4.76907 7.75223 4.75631 7.49598 4.79459 7.26535C4.82012 7.06034 4.89669 6.88096 4.99878 6.72721C5.24126 6.38126 5.64964 6.16345 6.12184 6.16345C6.59403 6.16345 7.01517 6.36845 7.24489 6.72721C7.34699 6.88096 7.42356 7.06034 7.44908 7.26535C7.48737 7.49598 7.47461 7.76505 7.4108 8.04693C7.25765 8.72601 6.81098 9.54603 6.12184 10.4301ZM11.2139 11.0323C11.1245 11.6986 10.6779 12.2752 10.0525 12.5314C9.74624 12.6595 9.41442 12.698 9.08261 12.6595C8.76356 12.6211 8.44451 12.5186 8.1127 12.3264C7.65327 12.0702 7.19384 11.673 6.65784 11.0836C7.50013 10.0457 8.01061 9.09758 8.20204 8.25193C8.29137 7.85474 8.30413 7.49598 8.26585 7.16284C8.2148 6.84252 8.09994 6.54783 7.92127 6.29157C7.52565 5.715 6.86203 5.38186 6.12184 5.38186C5.38164 5.38186 4.71802 5.72781 4.3224 6.29157C4.14373 6.54783 4.02887 6.84252 3.97783 7.16284C3.92678 7.49598 3.93954 7.86755 4.04164 8.25193C4.23306 9.09758 4.75631 10.0585 5.58583 11.0964C5.06259 11.6858 4.5904 12.083 4.13097 12.3392C3.79916 12.5314 3.48011 12.6339 3.16106 12.6724C2.81649 12.7108 2.48467 12.6595 2.19115 12.5442C1.56581 12.288 1.11914 11.7114 1.02981 11.0451C0.991524 10.7248 1.01705 10.4045 1.14467 10.0457C1.18295 9.9176 1.24676 9.78947 1.31057 9.63572C1.39991 9.43071 1.502 9.2129 1.6041 8.99508L1.61686 8.96945C2.49744 7.06034 3.44182 5.11279 4.42449 3.2165L4.46278 3.13962C4.56488 2.94743 4.66697 2.74242 4.76907 2.55023C4.87116 2.34523 4.98602 2.15303 5.1264 1.98647C5.3944 1.67896 5.75174 1.51239 6.14736 1.51239C6.54298 1.51239 6.90032 1.67896 7.16832 1.98647C7.3087 2.15303 7.42356 2.34523 7.52565 2.55023C7.62775 2.74242 7.72984 2.94743 7.83194 3.13962L7.87023 3.2165C8.84014 5.12561 9.78452 7.07316 10.6651 8.98226V8.99508C10.7672 9.20008 10.8565 9.43071 10.9586 9.63572C11.0224 9.78947 11.0862 9.9176 11.1245 10.0457C11.2266 10.3789 11.2649 10.6992 11.2139 11.0323Z" fill="#999999"/>
</svg>
