<svg width="44" height="14" viewBox="0 0 44 14" fill="none" xmlns="http://www.w3.org/2000/svg">
<g clip-path="url(#clip0_116_571)">
<path fill-rule="evenodd" clip-rule="evenodd" d="M27.0569 10.6767C24.5857 12.496 21.0039 13.4667 17.92 13.4667C13.5959 13.4667 9.70302 11.8693 6.75795 9.21237C6.52656 9.00344 6.73388 8.71871 7.01155 8.88142C10.1899 10.7285 14.1197 11.8397 18.1791 11.8397C20.9169 11.8397 23.9286 11.2739 26.6978 10.0998C27.1162 9.92235 27.466 10.3735 27.0569 10.6767" fill="#999999"/>
<path fill-rule="evenodd" clip-rule="evenodd" d="M28.0844 9.50276C27.7698 9.09969 25.9964 9.31232 25.2005 9.40661C24.958 9.4362 24.9209 9.22542 25.1394 9.07381C26.5517 8.08094 28.8693 8.36753 29.1396 8.70033C29.4098 9.03498 29.0692 11.3554 27.742 12.4629C27.5384 12.633 27.344 12.5424 27.4347 12.3168C27.7327 11.5735 28.401 9.90767 28.0844 9.50276" fill="#999999"/>
<path fill-rule="evenodd" clip-rule="evenodd" d="M25.256 2.06441V1.09928C25.256 0.953217 25.367 0.855225 25.5003 0.855225H29.8263C29.9651 0.855225 30.0762 0.955066 30.0762 1.09928V1.92574C30.0743 2.06441 29.9577 2.2456 29.7504 2.53218L27.5087 5.72895C28.3417 5.70861 29.221 5.83249 29.9762 6.25773C30.1465 6.35388 30.1928 6.49439 30.2058 6.63306V7.66291C30.2058 7.80342 30.0503 7.96797 29.8874 7.88293C28.5564 7.18589 26.7887 7.11008 25.317 7.89032C25.1671 7.97167 25.0098 7.80897 25.0098 7.66845V6.69038C25.0098 6.53322 25.0116 6.26513 25.169 6.02662L27.766 2.30662H25.5059C25.367 2.30662 25.256 2.20863 25.256 2.06441" fill="#999999"/>
<path fill-rule="evenodd" clip-rule="evenodd" d="M9.47552 8.0864H8.1594C8.03353 8.07715 7.93357 7.98286 7.92432 7.86268V1.11602C7.92432 0.981049 8.03723 0.873812 8.17792 0.873812H9.40518C9.53291 0.879355 9.63472 0.97735 9.64397 1.09938V1.98131H9.66804C9.98827 1.12896 10.5899 0.731445 11.4007 0.731445C12.2244 0.731445 12.739 1.12896 13.1092 1.98131C13.4276 1.12896 14.1514 0.731445 14.927 0.731445C15.4786 0.731445 16.082 0.958861 16.4504 1.46916C16.8669 2.03677 16.7818 2.86139 16.7818 3.58431L16.7799 7.84234C16.7799 7.97731 16.667 8.0864 16.5263 8.0864H15.212C15.0806 8.07715 14.9751 7.97177 14.9751 7.84234V4.26656C14.9751 3.98182 15.001 3.27184 14.9381 3.0019C14.84 2.54892 14.5456 2.42135 14.1643 2.42135C13.8459 2.42135 13.5127 2.63397 13.3776 2.97417C13.2425 3.31437 13.2554 3.88383 13.2554 4.26656V7.84234C13.2554 7.97731 13.1425 8.0864 13.0018 8.0864H11.6876C11.5543 8.07715 11.4506 7.97177 11.4506 7.84234L11.4488 4.26656C11.4488 3.51405 11.5728 2.40656 10.638 2.40656C9.6921 2.40656 9.72912 3.48632 9.72912 4.26656V7.84234C9.72912 7.97731 9.61621 8.0864 9.47553 8.0864" fill="#999999"/>
<path fill-rule="evenodd" clip-rule="evenodd" d="M33.8006 0.731445C35.7535 0.731445 36.8105 2.40656 36.8105 4.5365C36.8105 6.59433 35.6424 8.22692 33.8006 8.22692C31.8829 8.22692 30.8389 6.55181 30.8389 4.46439C30.8389 2.36403 31.8958 0.731445 33.8006 0.731445V0.731445ZM33.8117 2.10888C32.8417 2.10888 32.7807 3.429 32.7807 4.25177C32.7807 5.07638 32.7677 6.83654 33.8006 6.83654C34.8205 6.83654 34.8687 5.41658 34.8687 4.55129C34.8687 3.98182 34.8446 3.30143 34.6725 2.76155C34.5244 2.29192 34.23 2.10888 33.8117 2.10888" fill="#999999"/>
<path fill-rule="evenodd" clip-rule="evenodd" d="M39.3428 8.0864H38.0322C37.9008 8.07715 37.7953 7.97177 37.7953 7.84234L37.7935 1.09383C37.8046 0.969954 37.9138 0.873812 38.0471 0.873812H39.2669C39.3817 0.879355 39.4761 0.957012 39.502 1.0624V2.09409H39.5261C39.8944 1.17149 40.4109 0.731445 41.3198 0.731445C41.9103 0.731445 42.486 0.94407 42.8562 1.52648C43.2005 2.06636 43.2005 2.97417 43.2005 3.62683V7.87378C43.1857 7.9921 43.0764 8.0864 42.9469 8.0864H41.627C41.5067 8.07715 41.4068 7.98841 41.3938 7.87378V4.20924C41.3938 3.47153 41.479 2.39176 40.5701 2.39176C40.2498 2.39176 39.9555 2.60624 39.8093 2.93164C39.6242 3.34395 39.6001 3.75441 39.6001 4.20924V7.84234C39.5983 7.97731 39.4835 8.0864 39.3428 8.0864" fill="#999999"/>
<path fill-rule="evenodd" clip-rule="evenodd" d="M21.8072 4.86377C21.8072 5.37592 21.8202 5.80302 21.561 6.25785C21.3519 6.62763 21.0187 6.85505 20.6503 6.85505C20.1449 6.85505 19.8488 6.47047 19.8488 5.90286C19.8488 4.78242 20.8539 4.57904 21.8072 4.57904V4.86377V4.86377ZM23.1344 8.06793C23.0474 8.14558 22.9216 8.15113 22.8235 8.09936C22.3866 7.73697 22.307 7.56872 22.0682 7.22298C21.3463 7.95884 20.8335 8.17886 19.8988 8.17886C18.79 8.17886 17.9292 7.49662 17.9292 6.13027C17.9292 5.06345 18.5067 4.33683 19.3323 3.98184C20.0468 3.66753 21.0446 3.61206 21.8072 3.52516V3.35506C21.8072 3.0426 21.8313 2.67281 21.6462 2.40287C21.487 2.16067 21.1797 2.06083 20.9076 2.06083C20.4059 2.06083 19.9598 2.31782 19.8506 2.85031C19.8284 2.96864 19.7414 3.08512 19.6211 3.09067L18.3457 2.95385C18.2383 2.92981 18.118 2.84291 18.1495 2.67836C18.4419 1.13267 19.8414 0.666748 21.0927 0.666748C21.7332 0.666748 22.5699 0.836848 23.0752 1.32126C23.7157 1.91846 23.6546 2.71534 23.6546 3.58248V5.63107C23.6546 6.24675 23.91 6.51669 24.1507 6.8495C24.234 6.96783 24.2525 7.11019 24.1451 7.19894C23.8767 7.42266 23.3991 7.83866 23.1363 8.07163L23.1344 8.06792" fill="#999999"/>
<path fill-rule="evenodd" clip-rule="evenodd" d="M4.55331 4.86377C4.55331 5.37592 4.56627 5.80302 4.30712 6.25785C4.09794 6.62763 3.7666 6.85505 3.39638 6.85505C2.89104 6.85505 2.59672 6.47047 2.59672 5.90286C2.59672 4.78242 3.60185 4.57904 4.55331 4.57904V4.86377V4.86377ZM5.88054 8.06793C5.79354 8.14558 5.66766 8.15113 5.56955 8.09936C5.1327 7.73697 5.05495 7.56872 4.81431 7.22298C4.09239 7.95884 3.58149 8.17886 2.64484 8.17886C1.5379 8.17886 0.675293 7.49662 0.675293 6.13027C0.675293 5.06345 1.25468 4.33683 2.07841 3.98184C2.79293 3.66753 3.79066 3.61206 4.55331 3.52516V3.35506C4.55331 3.0426 4.57738 2.67281 4.39412 2.40287C4.23307 2.16067 3.92579 2.06083 3.65554 2.06083C3.15389 2.06083 2.70593 2.31782 2.59672 2.85031C2.5745 2.96864 2.4875 3.08512 2.36903 3.09067L1.09179 2.95385C0.984424 2.92981 0.865954 2.84291 0.895571 2.67836C1.18989 1.13267 2.58746 0.666748 3.83879 0.666748C4.47927 0.666748 5.31596 0.836848 5.8213 1.32126C6.46178 1.91846 6.40069 2.71534 6.40069 3.58248V5.63107C6.40069 6.24675 6.65614 6.51669 6.89678 6.8495C6.98193 6.96783 7.00044 7.11019 6.89308 7.19894C6.62467 7.42266 6.14709 7.83866 5.88424 8.07163L5.88054 8.06792" fill="#999999"/>
</g>
<defs>
<clipPath id="clip0_116_571">
<rect width="42.5249" height="12.8" fill="white" transform="translate(0.675293 0.666748)"/>
</clipPath>
</defs>
</svg>
