<svg width="40" height="14" viewBox="0 0 40 14" fill="none" xmlns="http://www.w3.org/2000/svg">
<path d="M37.8719 8.48937L38.9541 9.2108C38.6028 9.72815 37.7627 10.6157 36.3104 10.6157C34.5068 10.6157 33.1636 9.2203 33.1636 7.44518C33.1636 5.55616 34.521 4.27466 36.1585 4.27466C37.8055 4.27466 38.6123 5.58463 38.8734 6.29183L39.0158 6.65255L34.7726 8.40868C35.0953 9.04468 35.5984 9.36743 36.3104 9.36743C37.0223 9.36743 37.5159 9.01621 37.8719 8.48937ZM34.5447 7.34551L37.3783 6.16843C37.2217 5.77449 36.7565 5.49446 36.2012 5.49446C35.494 5.49446 34.5115 6.12097 34.5447 7.34551Z" fill="#999999"/>
<path d="M31.1177 1.04248H32.4846V10.3262H31.1177V1.04248Z" fill="#999999"/>
<path d="M28.9628 4.52157H30.2823V10.1602C30.2823 12.5001 28.9011 13.4636 27.2684 13.4636C25.7306 13.4636 24.8051 12.4289 24.4586 11.5888L25.6689 11.0857C25.8872 11.603 26.4141 12.2153 27.2684 12.2153C28.3173 12.2153 28.9628 11.5651 28.9628 10.35V9.89438H28.9154C28.6021 10.2741 28.0041 10.6158 27.2447 10.6158C25.6594 10.6158 24.207 9.23464 24.207 7.45478C24.207 5.66543 25.6594 4.27002 27.2447 4.27002C27.9993 4.27002 28.6021 4.60701 28.9154 4.97722H28.9628V4.52157ZM29.0577 7.45478C29.0577 6.33466 28.3126 5.51829 27.3633 5.51829C26.4046 5.51829 25.5977 6.33466 25.5977 7.45478C25.5977 8.56067 26.4046 9.36279 27.3633 9.36279C28.3126 9.36754 29.0577 8.56067 29.0577 7.45478Z" fill="#999999"/>
<path d="M16.7034 7.43089C16.7034 9.25821 15.2795 10.6014 13.5328 10.6014C11.7862 10.6014 10.3623 9.25346 10.3623 7.43089C10.3623 5.59407 11.7862 4.25562 13.5328 4.25562C15.2795 4.25562 16.7034 5.59407 16.7034 7.43089ZM15.3174 7.43089C15.3174 6.29178 14.4916 5.50864 13.5328 5.50864C12.5741 5.50864 11.7482 6.29178 11.7482 7.43089C11.7482 8.5605 12.5741 9.35313 13.5328 9.35313C14.4916 9.35313 15.3174 8.5605 15.3174 7.43089Z" fill="#999999"/>
<path d="M23.6282 7.44518C23.6282 9.27251 22.2043 10.6157 20.4576 10.6157C18.711 10.6157 17.2871 9.27251 17.2871 7.44518C17.2871 5.60837 18.711 4.27466 20.4576 4.27466C22.2043 4.27466 23.6282 5.60362 23.6282 7.44518ZM22.2375 7.44518C22.2375 6.30607 21.4116 5.52293 20.4529 5.52293C19.4941 5.52293 18.6683 6.30607 18.6683 7.44518C18.6683 8.5748 19.4941 9.36743 20.4529 9.36743C21.4164 9.36743 22.2375 8.57005 22.2375 7.44518Z" fill="#999999"/>
<path d="M5.15062 9.22511C3.16192 9.22511 1.60514 7.62086 1.60514 5.63216C1.60514 3.64346 3.16192 2.03922 5.15062 2.03922C6.22328 2.03922 7.00642 2.46164 7.58547 3.00271L8.53948 2.04871C7.73261 1.27506 6.6552 0.686523 5.15062 0.686523C2.42625 0.686523 0.133789 2.90779 0.133789 5.63216C0.133789 8.35653 2.42625 10.5778 5.15062 10.5778C6.62197 10.5778 7.73261 10.0937 8.60118 9.19188C9.49348 8.29958 9.76877 7.04656 9.76877 6.03085C9.76877 5.71285 9.7308 5.38535 9.68808 5.14329H5.15062V6.46276H8.38285C8.28792 7.28862 8.02688 7.85343 7.64243 8.23788C7.17729 8.70776 6.44161 9.22511 5.15062 9.22511Z" fill="#999999"/>
</svg>
