<svg width="48" height="14" viewBox="0 0 48 14" fill="none" xmlns="http://www.w3.org/2000/svg">
<path d="M6.83748 12.6417C6.12567 12.7668 5.40133 12.8043 4.65205 12.9042L2.36662 6.20428V13.1918C1.65482 13.2668 1.00543 13.3668 0.331055 13.4667V0.666748H2.22934L4.82686 7.92936V0.666748H6.83748V12.6417ZM10.7713 5.35425C11.5457 5.35425 12.732 5.31674 13.4438 5.31674V7.3167C12.5571 7.3167 11.5207 7.3167 10.7713 7.35421V10.3293C11.9453 10.2543 13.1192 10.1542 14.3055 10.1167V12.0416L8.77314 12.4792V0.666748H14.3055V2.66675H10.7713V5.35425V5.35425ZM21.7361 2.6668H19.663V11.8668C18.9887 11.8668 18.3143 11.8668 17.665 11.8917V2.6668H15.5919V0.666748H21.7362L21.7361 2.6668V2.6668ZM24.983 5.21679H27.718V7.21675H24.983V11.7543H23.0222V0.666748H28.6047V2.66675H24.983V5.21679V5.21679ZM31.8516 10.0042C32.9881 10.0292 34.137 10.1168 35.2485 10.1792V12.1542C33.4627 12.0417 31.6768 11.9293 29.8535 11.8917V0.666748H31.8516V10.0042ZM36.9344 12.2918C37.5713 12.3293 38.2457 12.3668 38.8951 12.4417V0.666748H36.9344V12.2918V12.2918ZM47.6495 0.666748L45.1143 6.75427L47.6495 13.4667C46.9001 13.3668 46.1508 13.2292 45.4015 13.1042L43.9654 9.4043L42.5044 12.8043C41.7799 12.6792 41.0806 12.6417 40.3564 12.5417L42.9289 6.6792L40.6061 0.666748H42.754L44.0652 4.02926L45.464 0.666748H47.6495V0.666748Z" fill="#999999"/>
</svg>
