<svg width="51" height="14" viewBox="0 0 51 14" fill="none" xmlns="http://www.w3.org/2000/svg">
<path d="M16.1885 10.6951L16.8134 9.24374C17.4886 9.74768 18.3856 10.0097 19.2726 10.0097C19.9277 10.0097 20.3409 9.75776 20.3409 9.37477C20.3308 8.30642 16.4203 9.14295 16.3901 6.46201C16.38 5.10138 17.5894 4.05319 19.3028 4.05319C20.3208 4.05319 21.3387 4.30516 22.0644 4.87965L21.4798 6.36122C20.8146 5.93791 19.9882 5.63555 19.202 5.63555C18.6678 5.63555 18.3151 5.88752 18.3151 6.21004C18.3252 7.25823 22.266 6.68374 22.3063 9.24374C22.3063 10.6346 21.1271 11.6122 19.4338 11.6122C18.1941 11.6122 17.0552 11.32 16.1885 10.6951ZM40.1658 8.71965C39.8534 9.2639 39.2688 9.63681 38.5935 9.63681C37.5957 9.63681 36.7894 8.83051 36.7894 7.83272C36.7894 6.83492 37.5957 6.02862 38.5935 6.02862C39.2688 6.02862 39.8534 6.40154 40.1658 6.94579L41.8893 5.98831C41.2442 4.83933 40.0045 4.05319 38.5935 4.05319C36.5072 4.05319 34.814 5.74642 34.814 7.83272C34.814 9.91902 36.5072 11.6122 38.5935 11.6122C40.0146 11.6122 41.2442 10.8362 41.8893 9.67713L40.1658 8.71965V8.71965ZM23.173 0.918701H25.3299V11.4711H23.173V0.918701ZM42.7359 0.918701V11.4711H44.8927V8.30642L47.4527 11.4711H50.2143L46.9589 7.71177L49.9724 4.20437H47.3318L44.8927 7.11713V0.918701H42.7359ZM31.74 8.7398C31.4275 9.25382 30.7825 9.63681 30.0568 9.63681C29.059 9.63681 28.2527 8.83051 28.2527 7.83272C28.2527 6.83492 29.059 6.02862 30.0568 6.02862C30.7825 6.02862 31.4275 6.43177 31.74 6.95587V8.7398ZM31.74 4.20437V5.06106C31.3872 4.46642 30.5104 4.05319 29.5932 4.05319C27.6984 4.05319 26.2067 5.72626 26.2067 7.82264C26.2067 9.91902 27.6984 11.6122 29.5932 11.6122C30.5104 11.6122 31.3872 11.199 31.74 10.6044V11.4611H33.8968V4.20437H31.74Z" fill="#999999"/>
<path d="M2.85415 8.72981C2.85415 9.46555 2.2595 10.0602 1.52375 10.0602C0.788005 10.0602 0.193359 9.46555 0.193359 8.72981C0.193359 7.99406 0.788005 7.39941 1.52375 7.39941H2.85415V8.72981ZM3.51934 8.72981C3.51934 7.99406 4.11399 7.39941 4.84974 7.39941C5.58549 7.39941 6.18013 7.99406 6.18013 8.72981V12.0558C6.18013 12.7915 5.58549 13.3862 4.84974 13.3862C4.11399 13.3862 3.51934 12.7915 3.51934 12.0558V8.72981Z" fill="#999999"/>
<path d="M4.84956 3.38808C4.11381 3.38808 3.51917 2.79344 3.51917 2.05769C3.51917 1.32194 4.11381 0.727295 4.84956 0.727295C5.58531 0.727295 6.17996 1.32194 6.17996 2.05769V3.38808H4.84956ZM4.84956 4.06336C5.58531 4.06336 6.17996 4.658 6.17996 5.39375C6.17996 6.1295 5.58531 6.72415 4.84956 6.72415H1.5135C0.777751 6.72415 0.183105 6.1295 0.183105 5.39375C0.183105 4.658 0.777751 4.06336 1.5135 4.06336H4.84956Z" fill="#999999"/>
<path d="M10.1815 5.39375C10.1815 4.658 10.7761 4.06336 11.5118 4.06336C12.2476 4.06336 12.8422 4.658 12.8422 5.39375C12.8422 6.1295 12.2476 6.72415 11.5118 6.72415H10.1815V5.39375ZM9.51626 5.39375C9.51626 6.1295 8.92161 6.72415 8.18586 6.72415C7.45011 6.72415 6.85547 6.1295 6.85547 5.39375V2.05769C6.85547 1.32194 7.45011 0.727295 8.18586 0.727295C8.92161 0.727295 9.51626 1.32194 9.51626 2.05769V5.39375V5.39375Z" fill="#999999"/>
<path d="M8.18586 10.7254C8.92161 10.7254 9.51626 11.32 9.51626 12.0558C9.51626 12.7915 8.92161 13.3862 8.18586 13.3862C7.45011 13.3862 6.85547 12.7915 6.85547 12.0558V10.7254H8.18586ZM8.18586 10.0602C7.45011 10.0602 6.85547 9.46555 6.85547 8.72981C6.85547 7.99406 7.45011 7.39941 8.18586 7.39941H11.5219C12.2577 7.39941 12.8523 7.99406 12.8523 8.72981C12.8523 9.46555 12.2577 10.0602 11.5219 10.0602H8.18586Z" fill="#999999"/>
</svg>
